<svg width="287" height="43" viewBox="0 0 287 43" fill="none" xmlns="http://www.w3.org/2000/svg">
<path fill-rule="evenodd" clip-rule="evenodd" d="M15.4485 12.0155L21.4563 12.0155C23.9439 12.0155 26.2068 12.9777 27.8932 14.5501C28.494 15.1103 29.4496 15.1795 30.0304 14.5987L36.3244 8.30472C36.963 7.66618 36.9966 6.63453 36.3465 6.00777C32.4879 2.28783 27.2393 0 21.4563 0L3.43301 0C1.53701 0 0 1.53701 0 3.43301L0 39.4796C0 41.3756 1.53701 42.9126 3.43301 42.9126H21.4563C27.5233 42.9126 33.0022 40.3945 36.9049 36.3465C37.7105 35.5109 37.6277 34.1948 36.807 33.374L31.1262 27.6933C30.368 26.9351 29.0937 27.109 28.3625 27.8932C26.6391 29.7414 24.1827 30.8971 21.4563 30.8971H15.4485C13.5525 30.8971 12.0155 29.3601 12.0155 27.4641L12.0155 15.4485C12.0155 13.5525 13.5525 12.0155 15.4485 12.0155Z" fill="#38E8FE"/>
<path fill-rule="evenodd" clip-rule="evenodd" d="M20.1314 12.0709L15.4485 12.0709C13.5526 12.0709 12.0155 13.6079 12.0155 15.5039L12.0155 27.5195C12.0155 29.4155 13.5526 30.9525 15.4485 30.9525H20.1314C16.8951 37.5469 10.374 42.237 2.7016 42.8899C1.157 42.5546 0 41.1801 0 39.535L0 3.4884C0 1.84335 1.157 0.4688 2.7016 0.133545C10.374 0.786454 16.8951 5.47646 20.1314 12.0709Z" fill="#6B4DFA"/>
<rect x="46.334" y="21.2593" width="12.0155" height="12.0155" rx="3.43301" transform="rotate(135 46.334 21.2593)" fill="#F8D33A"/>
<path d="M54.916 35.8795L65.6218 11.6269H72.3779L83.1183 35.8795H75.9811L67.5966 14.9876H70.2991L61.9146 35.8795H54.916ZM60.7713 31.1675L62.5382 26.1091H74.3874L76.1543 31.1675H60.7713Z" fill="white"/>
<path d="M88.1429 35.8795L80.4168 17.101H87.1728L93.3399 32.7959H89.9445L96.4234 17.101H102.694L94.9336 35.8795H88.1429Z" fill="white"/>
<path d="M112.903 36.1913C110.686 36.1913 108.746 35.7755 107.083 34.944C105.443 34.0894 104.161 32.9345 103.237 31.4793C102.336 30.0011 101.886 28.3265 101.886 26.4556C101.886 24.5847 102.325 22.9217 103.202 21.4665C104.103 19.9883 105.339 18.8449 106.91 18.0365C108.48 17.205 110.247 16.7892 112.21 16.7892C114.058 16.7892 115.744 17.1703 117.269 17.9326C118.793 18.6717 120.006 19.7688 120.907 21.224C121.808 22.6791 122.258 24.4461 122.258 26.5249C122.258 26.7559 122.246 27.0215 122.223 27.3218C122.2 27.622 122.177 27.8992 122.154 28.1533H107.291V24.6886H118.655L116.16 25.6587C116.183 24.8041 116.022 24.065 115.675 23.4414C115.352 22.8177 114.89 22.3327 114.289 21.9862C113.712 21.6397 113.03 21.4665 112.245 21.4665C111.46 21.4665 110.767 21.6397 110.166 21.9862C109.589 22.3327 109.138 22.8293 108.815 23.476C108.492 24.0996 108.33 24.8388 108.33 25.6934V26.6981C108.33 27.622 108.515 28.4189 108.884 29.0887C109.277 29.7586 109.831 30.2783 110.547 30.6478C111.263 30.9943 112.118 31.1675 113.111 31.1675C114.035 31.1675 114.82 31.0405 115.467 30.7864C116.137 30.5092 116.795 30.0935 117.442 29.5391L120.907 33.1424C120.006 34.1356 118.897 34.8978 117.581 35.4291C116.264 35.9372 114.705 36.1913 112.903 36.1913Z" fill="white"/>
<path d="M136.698 16.7892C138.153 16.7892 139.47 17.0895 140.648 17.69C141.826 18.2675 142.75 19.1683 143.42 20.3925C144.113 21.6166 144.459 23.1988 144.459 25.139V35.8795H137.876V26.2131C137.876 24.8734 137.599 23.9033 137.045 23.3028C136.514 22.6791 135.763 22.3673 134.793 22.3673C134.1 22.3673 133.465 22.529 132.887 22.8524C132.31 23.1526 131.859 23.6261 131.536 24.2729C131.213 24.9196 131.051 25.7627 131.051 26.8021V35.8795H124.468V17.101H130.739V22.4366L129.526 20.8775C130.243 19.5148 131.224 18.4985 132.471 17.8286C133.719 17.1357 135.128 16.7892 136.698 16.7892Z" fill="white"/>
<path d="M157.185 42.9127C155.384 42.9127 153.663 42.7048 152.023 42.2891C150.406 41.8733 149.02 41.2612 147.865 40.4528L150.256 35.8448C151.041 36.4684 152.011 36.9535 153.166 37.3C154.344 37.6695 155.488 37.8543 156.596 37.8543C158.375 37.8543 159.657 37.4616 160.442 36.6763C161.227 35.9141 161.62 34.7939 161.62 33.3156V31.0982L161.967 25.832L161.932 20.5311V17.101H168.203V32.4495C168.203 36.0065 167.244 38.6396 165.327 40.3489C163.41 42.0581 160.696 42.9127 157.185 42.9127ZM156.042 34.9094C154.379 34.9094 152.843 34.5398 151.434 33.8007C150.048 33.0384 148.928 31.9875 148.073 30.6478C147.242 29.2851 146.826 27.6798 146.826 25.832C146.826 23.9842 147.242 22.3904 148.073 21.0507C148.928 19.688 150.048 18.637 151.434 17.8979C152.843 17.1588 154.379 16.7892 156.042 16.7892C157.636 16.7892 158.998 17.1126 160.13 17.7593C161.262 18.383 162.117 19.3646 162.694 20.7043C163.295 22.0439 163.595 23.7532 163.595 25.832C163.595 27.9108 163.295 29.62 162.694 30.9597C162.117 32.2993 161.262 33.2925 160.13 33.9393C158.998 34.586 157.636 34.9094 156.042 34.9094ZM157.601 29.6777C158.386 29.6777 159.079 29.516 159.68 29.1927C160.304 28.8693 160.789 28.4189 161.135 27.8415C161.505 27.264 161.689 26.5942 161.689 25.832C161.689 25.0697 161.505 24.3999 161.135 23.8225C160.789 23.245 160.304 22.8062 159.68 22.5059C159.079 22.1825 158.386 22.0209 157.601 22.0209C156.816 22.0209 156.111 22.1825 155.488 22.5059C154.864 22.8062 154.367 23.245 153.998 23.8225C153.651 24.3999 153.478 25.0697 153.478 25.832C153.478 26.5942 153.651 27.264 153.998 27.8415C154.367 28.4189 154.864 28.8693 155.488 29.1927C156.111 29.516 156.816 29.6777 157.601 29.6777Z" fill="white"/>
<path d="M181.447 36.1913C179.23 36.1913 177.29 35.7755 175.627 34.944C173.987 34.0894 172.705 32.9345 171.781 31.4793C170.88 30.0011 170.43 28.3265 170.43 26.4556C170.43 24.5847 170.868 22.9217 171.746 21.4665C172.647 19.9883 173.883 18.8449 175.453 18.0365C177.024 17.205 178.791 16.7892 180.754 16.7892C182.602 16.7892 184.288 17.1703 185.813 17.9326C187.337 18.6717 188.55 19.7688 189.451 21.224C190.351 22.6791 190.802 24.4461 190.802 26.5249C190.802 26.7559 190.79 27.0215 190.767 27.3218C190.744 27.622 190.721 27.8992 190.698 28.1533H175.834V24.6886H187.199L184.704 25.6587C184.727 24.8041 184.565 24.065 184.219 23.4414C183.896 22.8177 183.434 22.3327 182.833 21.9862C182.256 21.6397 181.574 21.4665 180.789 21.4665C180.004 21.4665 179.311 21.6397 178.71 21.9862C178.133 22.3327 177.682 22.8293 177.359 23.476C177.036 24.0996 176.874 24.8388 176.874 25.6934V26.6981C176.874 27.622 177.059 28.4189 177.428 29.0887C177.821 29.7586 178.375 30.2783 179.091 30.6478C179.807 30.9943 180.662 31.1675 181.655 31.1675C182.579 31.1675 183.364 31.0405 184.011 30.7864C184.681 30.5092 185.339 30.0935 185.986 29.5391L189.451 33.1424C188.55 34.1356 187.441 34.8978 186.124 35.4291C184.808 35.9372 183.249 36.1913 181.447 36.1913Z" fill="white"/>
<path d="M193.012 35.8795V17.101H199.283V22.5752L198.347 21.0161C198.902 19.6071 199.803 18.5562 201.05 17.8633C202.297 17.1472 203.81 16.7892 205.589 16.7892V22.7138C205.288 22.6676 205.023 22.6445 204.792 22.6445C204.584 22.6214 204.353 22.6098 204.099 22.6098C202.759 22.6098 201.674 22.9794 200.842 23.7185C200.011 24.4346 199.595 25.6125 199.595 27.2525V35.8795H193.012Z" fill="white"/>
<path d="M207.758 35.8795V11.6269H219.226C221.905 11.6269 224.261 12.1235 226.294 13.1167C228.327 14.1099 229.909 15.5073 231.041 17.3089C232.195 19.1105 232.773 21.2586 232.773 23.7532C232.773 26.2246 232.195 28.3727 231.041 30.1974C229.909 31.999 228.327 33.3965 226.294 34.3897C224.261 35.3829 221.905 35.8795 219.226 35.8795H207.758ZM214.618 30.4053H218.949C220.335 30.4053 221.536 30.1512 222.552 29.6431C223.592 29.1118 224.4 28.3496 224.977 27.3564C225.555 26.3401 225.844 25.139 225.844 23.7532C225.844 22.3442 225.555 21.1431 224.977 20.1499C224.4 19.1567 223.592 18.4061 222.552 17.8979C221.536 17.3667 220.335 17.101 218.949 17.101H214.618V30.4053Z" fill="white"/>
<path d="M232.309 35.8795L243.014 11.6269H249.77L260.511 35.8795H253.374L244.989 14.9876H247.692L239.307 35.8795H232.309ZM238.164 31.1675L239.931 26.1091H251.78L253.547 31.1675H238.164Z" fill="white"/>
<path d="M273.523 36.3645C271.582 36.3645 269.792 36.0527 268.152 35.4291C266.512 34.8054 265.08 33.9277 263.856 32.7959C262.655 31.641 261.72 30.3014 261.05 28.7769C260.38 27.2525 260.045 25.5779 260.045 23.7532C260.045 21.9285 260.38 20.2539 261.05 18.7294C261.72 17.205 262.655 15.8769 263.856 14.7451C265.08 13.5902 266.512 12.7009 268.152 12.0773C269.792 11.4537 271.582 11.1418 273.523 11.1418C275.486 11.1418 277.276 11.4537 278.893 12.0773C280.533 12.7009 281.953 13.5902 283.154 14.7451C284.355 15.8769 285.291 17.205 285.961 18.7294C286.654 20.2539 287 21.9285 287 23.7532C287 25.5779 286.654 27.264 285.961 28.8116C285.291 30.336 284.355 31.6641 283.154 32.7959C281.953 33.9277 280.533 34.8054 278.893 35.4291C277.276 36.0527 275.486 36.3645 273.523 36.3645ZM273.523 30.6825C274.446 30.6825 275.301 30.5208 276.086 30.1974C276.895 29.8741 277.588 29.4121 278.165 28.8116C278.766 28.1879 279.228 27.4488 279.551 26.5942C279.898 25.7396 280.071 24.7926 280.071 23.7532C280.071 22.6907 279.898 21.7437 279.551 20.9122C279.228 20.0575 278.766 19.33 278.165 18.7294C277.588 18.1058 276.895 17.6323 276.086 17.3089C275.301 16.9856 274.446 16.8239 273.523 16.8239C272.599 16.8239 271.733 16.9856 270.924 17.3089C270.139 17.6323 269.446 18.1058 268.845 18.7294C268.268 19.33 267.806 20.0575 267.459 20.9122C267.136 21.7437 266.974 22.6907 266.974 23.7532C266.974 24.7926 267.136 25.7396 267.459 26.5942C267.806 27.4488 268.268 28.1879 268.845 28.8116C269.446 29.4121 270.139 29.8741 270.924 30.1974C271.733 30.5208 272.599 30.6825 273.523 30.6825Z" fill="white"/>
</svg>
